<svg xmlns="http://www.w3.org/2000/svg" viewBox="0 0 198 80"><defs><style>.cls-1{fill:none;}.cls-2,.cls-3{fill:currentColor;}.cls-2{fill-rule:evenodd;}</style></defs><g id="Layer_2" data-name="Layer 2"><g id="Layer_1-2" data-name="Layer 1"><rect class="cls-1" width="198" height="80"/><path class="cls-2" d="M164.09,21.61l-3.27,8c1.48-.11,2.31-.24,2.31-.24,1.1-.23,3.25-.37,5.72-.71l-2.46-4c-.82-1.11-1.58-2.13-2.3-3.08Zm-.82-1.07q-5.7-7.38-6.71-6.72l-.13-.08c-.22,5.94,1.15,13.77.77,13.58-2.93-3.92-3.24-13.1-3.31-14.5h0l0,0c0-.09,0-.14,0-.14H154a2.77,2.77,0,0,1,2.61-1.71c1.38,0,4.4,2.22,8,7q3.33-6.54,3.45-6.48t-2.81,7.35c1,1.44,2.09,3.08,3.17,4.94A47.71,47.71,0,0,1,171,28.37a26.6,26.6,0,0,0,5.68-1.61,6.2,6.2,0,0,0,3.12-2.82c1.42.68,1.65,1.78.69,3.27s-4.21,2.42-8.6,2.93c1.55,3.12,3.52,7.42,5.79,13q-4.35-7.17-7.79-12.82a66.89,66.89,0,0,1-6.72.16s-1,.13-2.74.19c-.26.64-.53,1.31-.81,2a30.28,30.28,0,0,0-2.36,7.89,8.2,8.2,0,0,0,.42,4.24c-1.88.29-2.93-.67-3.17-2.88s.82-5.58,3.17-10.13l.53-1.06a50.67,50.67,0,0,1-14.48-2.11,68.9,68.9,0,0,0,14.95,1.16q2.72-5.41,4.63-9.23ZM26.72,28.76a6.42,6.42,0,0,0-1.51-1.21,3.28,3.28,0,0,0-1.61-.44,4.69,4.69,0,0,0-4.5,3.09,5.35,5.35,0,0,0-.32,1.86,5.26,5.26,0,0,0,.32,1.85,4.63,4.63,0,0,0,1,1.58A4.71,4.71,0,0,0,23.6,37a4,4,0,0,0,1.78-.4,3.9,3.9,0,0,0,1.41-1.15l2.73,3a6.34,6.34,0,0,1-1.42,1.06,8.92,8.92,0,0,1-1.62.72,9.16,9.16,0,0,1-1.58.4,8.35,8.35,0,0,1-1.3.12,9.9,9.9,0,0,1-3.49-.62,8.48,8.48,0,0,1-2.84-1.75,8.36,8.36,0,0,1-1.9-2.74,9.38,9.38,0,0,1,0-7.11,8.21,8.21,0,0,1,1.9-2.73A8.35,8.35,0,0,1,20.11,24a9.9,9.9,0,0,1,3.49-.62,8.94,8.94,0,0,1,3.17.6,7.34,7.34,0,0,1,2.79,1.91l-2.84,2.86Zm4.41,3.3a8.7,8.7,0,0,1,.7-3.56,8.07,8.07,0,0,1,1.9-2.73A8.25,8.25,0,0,1,36.57,24a10.13,10.13,0,0,1,7,0,8.25,8.25,0,0,1,2.84,1.76,8.07,8.07,0,0,1,1.9,2.73,9.38,9.38,0,0,1,0,7.11,8.21,8.21,0,0,1-1.9,2.74,8.38,8.38,0,0,1-2.84,1.75,10.13,10.13,0,0,1-7,0,8.38,8.38,0,0,1-2.84-1.75,8.21,8.21,0,0,1-1.9-2.74,8.69,8.69,0,0,1-.7-3.55Zm4.1,0a5.27,5.27,0,0,0,.33,1.85,4.63,4.63,0,0,0,1,1.58,4.83,4.83,0,0,0,7.08,0,4.63,4.63,0,0,0,1-1.58,5.27,5.27,0,0,0,.33-1.85,5.36,5.36,0,0,0-.33-1.86,4.72,4.72,0,0,0-1-1.58,4.83,4.83,0,0,0-7.08,0,4.72,4.72,0,0,0-1,1.58,5.36,5.36,0,0,0-.33,1.86Zm17.46-8.25h3.9v2.57h.07a5.6,5.6,0,0,1,1.76-2.07,5.31,5.31,0,0,1,3.27-.92q3.87,0,5.14,3.06a5.86,5.86,0,0,1,2.22-2.32,6.51,6.51,0,0,1,3.19-.74,6.42,6.42,0,0,1,2.77.55,5,5,0,0,1,1.83,1.52,6.25,6.25,0,0,1,1,2.25,11.64,11.64,0,0,1,.31,2.77v9.83H74.05V31a7.69,7.69,0,0,0-.14-1.46,3.42,3.42,0,0,0-.48-1.24,2.27,2.27,0,0,0-.92-.84A3.17,3.17,0,0,0,71,27.11a3.34,3.34,0,0,0-1.62.36,3.19,3.19,0,0,0-1.1,1,4,4,0,0,0-.61,1.37,6.42,6.42,0,0,0-.19,1.57v8.94H63.37V30.48A4.15,4.15,0,0,0,62.72,28a2.45,2.45,0,0,0-2.16-.91,3.92,3.92,0,0,0-1.73.34,3.41,3.41,0,0,0-1.16.93A3.75,3.75,0,0,0,57,29.72a6.27,6.27,0,0,0-.2,1.58v9H52.69V23.81ZM82.2,17.94a2.35,2.35,0,0,1,.74-1.74,2.52,2.52,0,0,1,1.86-.74,2.71,2.71,0,0,1,1.9.71,2.42,2.42,0,0,1,0,3.54,2.71,2.71,0,0,1-1.9.7,2.52,2.52,0,0,1-1.86-.74,2.34,2.34,0,0,1-.74-1.73ZM82.78,40V23.54h4.11V40Zm6.8-12.89V23.64H93V18.86h4.11v4.78h4.52v3.51H97.07v7.21a3.73,3.73,0,0,0,.46,2,2,2,0,0,0,1.83.72,6.59,6.59,0,0,0,1.2-.12,2.52,2.52,0,0,0,1-.4V40a5.1,5.1,0,0,1-1.59.43,13.33,13.33,0,0,1-1.66.12,8.41,8.41,0,0,1-2.69-.36A3.53,3.53,0,0,1,94,39.09a4,4,0,0,1-.82-1.84A12.73,12.73,0,0,1,93,34.71V27.15ZM115.13,38H115a5.2,5.2,0,0,1-2.26,2,6.94,6.94,0,0,1-3,.64,7.87,7.87,0,0,1-2.21-.31,5.86,5.86,0,0,1-1.91-.93,4.91,4.91,0,0,1-1.36-1.54,4.46,4.46,0,0,1-.51-2.17,5,5,0,0,1,.48-2.29,4.82,4.82,0,0,1,1.28-1.58,6.58,6.58,0,0,1,1.87-1,13.26,13.26,0,0,1,2.21-.57,19.65,19.65,0,0,1,2.31-.24c.77,0,1.5,0,2.19,0h1v-.45a2.69,2.69,0,0,0-1.07-2.32,4.47,4.47,0,0,0-2.7-.77,6.3,6.3,0,0,0-2.43.46,6.18,6.18,0,0,0-2,1.26L104.82,26a7.92,7.92,0,0,1,3.2-2,11.81,11.81,0,0,1,3.79-.62,9.58,9.58,0,0,1,2.94.4,6.34,6.34,0,0,1,2,1A4.46,4.46,0,0,1,118,26.23a7.08,7.08,0,0,1,.62,1.63,10.23,10.23,0,0,1,.22,1.6c0,.52,0,1,0,1.36v9.49h-3.69V38Zm-.24-5.12H114c-.57,0-1.21,0-1.92.07a9.83,9.83,0,0,0-2,.32,4.52,4.52,0,0,0-1.59.76,1.65,1.65,0,0,0-.65,1.39,1.69,1.69,0,0,0,.26,1,2.34,2.34,0,0,0,.66.67,2.88,2.88,0,0,0,.93.4,4.44,4.44,0,0,0,1,.12,4.27,4.27,0,0,0,3.14-1,3.75,3.75,0,0,0,1-2.76v-.93Zm17.27-4.54a3.78,3.78,0,0,0-3.22-1.69,3.36,3.36,0,0,0-1.61.42,1.39,1.39,0,0,0-.79,1.34,1.17,1.17,0,0,0,.65,1.1,7.14,7.14,0,0,0,1.65.58l2.13.5a8.42,8.42,0,0,1,2.14.79,4.73,4.73,0,0,1,1.65,1.46,4.41,4.41,0,0,1,.65,2.55,4.57,4.57,0,0,1-.64,2.49,4.92,4.92,0,0,1-1.64,1.63,7.44,7.44,0,0,1-2.28.9,12,12,0,0,1-2.53.27,10.7,10.7,0,0,1-3.52-.55,6.74,6.74,0,0,1-2.88-2l2.74-2.58a7.91,7.91,0,0,0,1.69,1.46,4.08,4.08,0,0,0,2.21.57,4.36,4.36,0,0,0,.93-.11,3.09,3.09,0,0,0,.89-.34,2.12,2.12,0,0,0,.66-.6,1.55,1.55,0,0,0-.39-2.12,5.83,5.83,0,0,0-1.64-.67c-.67-.17-1.38-.33-2.14-.48a8.3,8.3,0,0,1-2.14-.72,4.62,4.62,0,0,1-1.65-1.39,4.18,4.18,0,0,1-.65-2.48,4.83,4.83,0,0,1,.57-2.39,5,5,0,0,1,1.49-1.66,6.34,6.34,0,0,1,2.12-1,10,10,0,0,1,2.43-.31,9.63,9.63,0,0,1,3.25.57,5.32,5.32,0,0,1,2.6,1.94l-2.73,2.48Zm34.73-10.66q12.39-.07,14.14,4.93a6.09,6.09,0,0,1-.32,1.85s-.73-1.95-4.78-3.95a60.11,60.11,0,0,0-9-2.83Zm4.52,16.39a64.19,64.19,0,0,1-6.9,7.14,14.2,14.2,0,0,1-5.67,2.63c-.33.14-1,.23-1,.41s.67.51.67.51q4.56,3.24,12.91-10.69Z"/><path class="cls-3" d="M103.58,63.93c0-1.7,0-3.36,0-5a3.67,3.67,0,0,1,.28-1.39,1.92,1.92,0,0,1,2.17-1.05A1.64,1.64,0,0,1,107.36,58a5.56,5.56,0,0,1,.08.8c0,1.55,0,3.09,0,4.63v.46h2.33a.68.68,0,0,0,0-.15c0-2,0-3.9,0-5.84a3.77,3.77,0,0,0-1-2.76c-1.11-1.13-4-1.4-5.16.54a2.22,2.22,0,0,1-.2.25V54.55h-2.23v9.38Z"/><path class="cls-3" d="M165.75,63.93c0-.11,0-.19,0-.28,0-1.95,0-3.89,0-5.84a4.15,4.15,0,0,0-.11-.93,2.84,2.84,0,0,0-2-2.37,3.35,3.35,0,0,0-3.42.51c-.27.24-.49.54-.81.89V54.55H157.2v9.36h2.35c0-.23,0-.43,0-.62,0-1.6,0-3.2,0-4.8a2,2,0,0,1,2.06-2.05c1,0,1.65.59,1.72,1.92.08,1.52,0,3,.06,4.57v1Z"/><path class="cls-3" d="M121.09,63.93V62.06c0-1.6,0-3.2-.08-4.8a3,3,0,0,0-2.29-2.83c-1.74-.38-3,0-3.8,1.28,0,.06-.1.11-.21.24v-1.4H112.5v9.37h2.33c0-1.67,0-3.3,0-4.93A4,4,0,0,1,115,57.8a1.94,1.94,0,0,1,2.08-1.36c.84.06,1.33.55,1.52,1.55a3.34,3.34,0,0,1,.06.62c0,1.4,0,2.79,0,4.18v1.14Z"/><path class="cls-3" d="M145.27,56.55c0,1.17,0,2.27,0,3.38a20.8,20.8,0,0,0,.1,2.23A2,2,0,0,0,146.77,64,5.68,5.68,0,0,0,150,64a.47.47,0,0,0,.26-.29c0-.58,0-1.16,0-1.74-.32.06-.59.15-.87.18-1.24.14-1.65-.18-1.71-1.44s0-2.3,0-3.45c0-.22,0-.44,0-.7h2.58v-2h-2.58V51.83h-2.35v2.7h-1.92v2Z"/><path class="cls-3" d="M86.3,61.19a2.59,2.59,0,0,1-3.77.1,3,3,0,0,1-.15-3.93c1-1.18,2.32-1.19,3.84,0l1.6-1.62c-1.54-1.84-5.07-1.88-7-.06a5.07,5.07,0,0,0,0,7.21,5.23,5.23,0,0,0,7,0Z"/><path class="cls-3" d="M143,55.69c-1.57-1.85-5.07-1.87-7,0a5.06,5.06,0,0,0,.05,7.2,5.25,5.25,0,0,0,7,0l-1.54-1.66a2.61,2.61,0,0,1-3.75.12,2.94,2.94,0,0,1-.19-3.92,2.64,2.64,0,0,1,1.64-.92,2.4,2.4,0,0,1,2.17.85Z"/><path class="cls-3" d="M49.06,55.41H47.21v2h1.85c0,1,0,1.87,0,2.78s0,1.67.08,2.51a2,2,0,0,0,1.25,1.82,5.2,5.2,0,0,0,3.17.06.42.42,0,0,0,.25-.3c0-.55,0-1.1,0-1.67-.24.06-.44.13-.64.16a3.77,3.77,0,0,1-.67,0c-.7,0-1.1-.32-1.12-1,0-1.43,0-2.87,0-4.3,0,0,0,0,.09-.11H53.8v-2H51.33V52.81H49.06Z"/><path class="cls-3" d="M67.72,49.94H65.5V64.2h2.22Z"/><path class="cls-3" d="M154.46,63.93V54.55h-2.33v9.38Z"/><path class="cls-3" d="M26.34,64.39H28.6v-9H26.34Z"/><path class="cls-3" d="M43.21,55.33V64.4h2.22V55.33Z"/><path class="cls-3" d="M73.32,62.89a1.52,1.52,0,0,0-3,0,1.52,1.52,0,0,0,3,0Z"/><path class="cls-3" d="M154.81,51.34a1.51,1.51,0,1,0-1.5,1.44A1.43,1.43,0,0,0,154.81,51.34Z"/><path class="cls-3" d="M44.34,50.86a1.37,1.37,0,1,0-.08,2.74,1.4,1.4,0,0,0,1.53-1.35A1.38,1.38,0,0,0,44.34,50.86Z"/><path class="cls-3" d="M28.93,52.25a1.45,1.45,0,0,0-2.9,0,1.45,1.45,0,0,0,2.9,0Z"/><path class="cls-3" d="M34.4,69.06l-1.17-.28A5.17,5.17,0,0,1,31,67.56l1.32-1.82c.5.31,1,.65,1.46.9a3.88,3.88,0,0,0,2.84.2,2.39,2.39,0,0,0,1.71-2.47c0-.29,0-.59,0-.91a.42.42,0,0,0-.14,0,4.34,4.34,0,0,1-7.14-2,4.91,4.91,0,0,1,1.17-5.08,4.4,4.4,0,0,1,5.07-.71,8.83,8.83,0,0,1,1.14.92V55.43h2.18v.47c0,2.66,0,5.33,0,8a8.18,8.18,0,0,1-.16,1.56A4.23,4.23,0,0,1,36.74,69a1,1,0,0,0-.19.08Zm4-9.15a2.49,2.49,0,0,0-2.67-2.66,2.55,2.55,0,0,0-2.65,2.66,2.62,2.62,0,0,0,2.67,2.66A2.54,2.54,0,0,0,38.44,59.91Z"/><path class="cls-3" d="M14,58.82c.15-.45.26-.92.45-1.35a4.27,4.27,0,0,1,6.33-1.85c.22.16.42.36.7.61v-6.3h2.28V64.2H21.63V62.92c-.22.25-.35.43-.5.57a3.81,3.81,0,0,1-3.25.94,4.17,4.17,0,0,1-3.73-3.36c0-.16-.1-.31-.15-.46Zm7.56.88A2.59,2.59,0,0,0,18.92,57a2.72,2.72,0,0,0,0,5.43A2.61,2.61,0,0,0,21.56,59.7Z"/><path class="cls-3" d="M184,63.22a2.53,2.53,0,0,0-.12.23,1.53,1.53,0,0,1-1.68.89,1.46,1.46,0,0,1-.14-2.86,1.55,1.55,0,0,1,1.79.77c0,.08.1.17.15.25Z"/><path class="cls-3" d="M178.14,54.54v.51c0,2.69,0,5.39,0,8.08a9.29,9.29,0,0,1-.28,2.17,4,4,0,0,1-2.93,3.06,7.42,7.42,0,0,1-6.28-.84c-.13-.08-.24-.18-.36-.27s-.07-.09-.14-.16l1.32-1.8a13.66,13.66,0,0,0,2.22,1.07,5.14,5.14,0,0,0,2.07.06,2.31,2.31,0,0,0,2-2.31,10.56,10.56,0,0,0,0-1.26,9.24,9.24,0,0,1-1,.74,4.63,4.63,0,0,1-6-1.67,5.3,5.3,0,0,1,1.1-6.71,4.51,4.51,0,0,1,4.67-.52,8.07,8.07,0,0,1,1.42,1V54.54Zm-7.81,4.65A2.72,2.72,0,0,0,173.09,62a2.65,2.65,0,0,0,2.78-2.72,2.57,2.57,0,0,0-2.71-2.79A2.65,2.65,0,0,0,170.33,59.19Z"/><path class="cls-3" d="M99,59.25a5.14,5.14,0,1,1-5.18-4.94A4.89,4.89,0,0,1,99,59.25Zm-7.87,0a2.67,2.67,0,0,0,2.73,2.81,2.81,2.81,0,1,0-2.73-2.81Z"/><path class="cls-3" d="M132.78,60.08h-7.14a2.24,2.24,0,0,0,1.43,2A3,3,0,0,0,130.68,61l1.69,1.28a4.65,4.65,0,0,1-2.75,1.76A5.21,5.21,0,0,1,124,61.9a4.93,4.93,0,0,1,4-7.57c2.83-.2,4.67,1.52,4.85,4.39C132.8,59.15,132.78,59.58,132.78,60.08Zm-7.08-1.83h4.71A2.16,2.16,0,0,0,128,56.08,2.21,2.21,0,0,0,125.7,58.25Z"/><path class="cls-3" d="M103.58,63.93h-2.35V54.55h2.23V56a2.22,2.22,0,0,0,.2-.25c1.13-1.94,4-1.67,5.16-.54a3.77,3.77,0,0,1,1,2.76c0,1.94,0,3.89,0,5.84a.68.68,0,0,1,0,.15h-2.33v-.46c0-1.54,0-3.08,0-4.63a5.56,5.56,0,0,0-.08-.8,1.64,1.64,0,0,0-1.31-1.56,1.92,1.92,0,0,0-2.17,1.05,3.67,3.67,0,0,0-.28,1.39C103.56,60.57,103.58,62.23,103.58,63.93Z"/><path class="cls-3" d="M165.75,63.93h-2.34v-1c0-1.52,0-3-.06-4.57-.07-1.33-.69-2-1.72-1.92a2,2,0,0,0-2.06,2.05c0,1.6,0,3.2,0,4.8,0,.19,0,.39,0,.62H157.2V54.55h2.22v1.36c.32-.35.54-.65.81-.89a3.35,3.35,0,0,1,3.42-.51,2.84,2.84,0,0,1,2,2.37,4.15,4.15,0,0,1,.11.93c0,1.95,0,3.89,0,5.84C165.77,63.74,165.76,63.82,165.75,63.93Z"/><path class="cls-3" d="M121.09,63.93h-2.4V62.79c0-1.39,0-2.78,0-4.18a3.34,3.34,0,0,0-.06-.62c-.19-1-.68-1.49-1.52-1.55A1.94,1.94,0,0,0,115,57.8a4,4,0,0,0-.17,1.19c0,1.63,0,3.26,0,4.93H112.5V54.55h2.21V56c.11-.13.17-.18.21-.24.84-1.29,2.06-1.66,3.8-1.28A3,3,0,0,1,121,57.26c.09,1.6.06,3.2.08,4.8Z"/><path class="cls-3" d="M63.17,64.49h-2v-1.2c-.25.26-.4.46-.58.62a3.94,3.94,0,0,1-4.89,0A2.68,2.68,0,0,1,56,59.78a5.63,5.63,0,0,1,2.84-.87c.76-.06,1.52-.08,2.28-.11a1.42,1.42,0,0,0-.93-1.68,3.27,3.27,0,0,0-3,.35l-.47.34-1.2-1.28a10.83,10.83,0,0,1,1.41-.87,6,6,0,0,1,3.74-.35,2.91,2.91,0,0,1,2.49,2.84c.09,2.07.06,4.16.07,6.24A.49.49,0,0,1,63.17,64.49Zm-2.2-4a7.07,7.07,0,0,0-3.16.45,1,1,0,0,0-.63,1,1,1,0,0,0,.71,1,2.48,2.48,0,0,0,2.4-.25A2.09,2.09,0,0,0,61,60.45Z"/><path class="cls-3" d="M145.27,56.55h-1.92v-2h1.92v-2.7h2.35v2.68h2.58v2h-2.58c0,.26,0,.48,0,.7,0,1.15,0,2.3,0,3.45s.47,1.58,1.71,1.44c.28,0,.55-.12.87-.18,0,.58,0,1.16,0,1.74A.47.47,0,0,1,150,64a5.68,5.68,0,0,1-3.19,0,2,2,0,0,1-1.39-1.82,20.8,20.8,0,0,1-.1-2.23C145.26,58.82,145.27,57.72,145.27,56.55Z"/><path class="cls-3" d="M86.3,61.19l1.54,1.65a5.23,5.23,0,0,1-7,0,5.07,5.07,0,0,1,0-7.21c1.92-1.82,5.45-1.78,7,.06l-1.6,1.62c-1.52-1.15-2.83-1.14-3.84,0a3,3,0,0,0,.15,3.93A2.59,2.59,0,0,0,86.3,61.19Z"/><path class="cls-3" d="M143,55.69l-1.64,1.63a2.4,2.4,0,0,0-2.17-.85,2.64,2.64,0,0,0-1.64.92,2.94,2.94,0,0,0,.19,3.92,2.61,2.61,0,0,0,3.75-.12L143,62.85a5.25,5.25,0,0,1-7,0,5.06,5.06,0,0,1-.05-7.2C137.92,53.82,141.42,53.84,143,55.69Z"/><path class="cls-3" d="M49.06,55.41v-2.6h2.27V55.4H53.8v2H51.45c-.06.07-.09.09-.09.11,0,1.43,0,2.87,0,4.3,0,.7.42,1,1.12,1a3.77,3.77,0,0,0,.67,0c.2,0,.4-.1.64-.16,0,.57,0,1.12,0,1.67a.42.42,0,0,1-.25.3,5.2,5.2,0,0,1-3.17-.06,2,2,0,0,1-1.25-1.82c-.07-.84-.07-1.68-.08-2.51s0-1.82,0-2.78H47.21v-2Z"/><path class="cls-3" d="M67.72,49.94V64.2H65.5V49.94Z"/><path class="cls-3" d="M154.46,63.93h-2.33V54.55h2.33Z"/><path class="cls-3" d="M26.34,64.39v-9H28.6v9Z"/><path class="cls-3" d="M43.21,55.33h2.22V64.4H43.21Z"/><path class="cls-3" d="M73.32,62.89a1.52,1.52,0,0,1-3,0,1.52,1.52,0,0,1,3,0Z"/><path class="cls-3" d="M154.81,51.34a1.51,1.51,0,1,1-1.52-1.42A1.44,1.44,0,0,1,154.81,51.34Z"/><path class="cls-3" d="M44.34,50.86a1.38,1.38,0,0,1,1.45,1.39,1.4,1.4,0,0,1-1.53,1.35,1.37,1.37,0,1,1,.08-2.74Z"/><path class="cls-3" d="M28.93,52.25a1.45,1.45,0,1,1-1.43-1.39A1.36,1.36,0,0,1,28.93,52.25Z"/></g></g></svg>